<svg width="33" height="33" viewBox="0 0 33 33" fill="none" xmlns="http://www.w3.org/2000/svg">
<path d="M10.9993 0.247363C11.2645 0.244239 11.52 0.346593 11.7098 0.531907C11.8995 0.717221 12.0078 0.970316 12.011 1.23551L12.3643 31.2334C12.3675 31.4986 12.2651 31.7542 12.0798 31.9439C11.8945 32.1337 11.6414 32.242 11.3762 32.2451C11.111 32.2483 10.8554 32.1459 10.6657 31.9606C10.476 31.7753 10.3676 31.5222 10.3645 31.257L10.0111 1.25907C10.008 0.993875 10.1103 0.738298 10.2957 0.548565C10.481 0.358833 10.7341 0.250487 10.9993 0.247363ZM32.2805 23.9983L32.092 7.99944C32.0795 6.93865 31.6462 5.92627 30.8872 5.18501C30.1283 4.44376 29.106 4.03434 28.0452 4.04684L14.0462 4.21175L14.0697 6.21161L28.0688 6.0467C28.5992 6.04045 29.1103 6.24516 29.4898 6.61579C29.8692 6.98642 30.0859 7.49261 30.0922 8.023L30.2806 24.0219C30.2869 24.5523 30.0822 25.0634 29.7116 25.4429C29.3409 25.8224 28.8347 26.0391 28.3043 26.0453L14.3053 26.2102L14.3289 28.2101L28.3279 28.0452C29.3887 28.0327 30.4011 27.5993 31.1423 26.8404C31.8836 26.0814 32.293 25.0591 32.2805 23.9983ZM8.32929 28.2808L8.30573 26.2809L4.306 26.328C3.77561 26.3343 3.26445 26.1296 2.88499 25.7589C2.50552 25.3883 2.28883 24.8821 2.28258 24.3517L2.09412 8.35282C2.08787 7.82242 2.29258 7.31127 2.66321 6.93181C3.03383 6.55234 3.54002 6.33565 4.07042 6.3294L8.07014 6.28228L8.04658 4.28242L4.04686 4.32954C2.98607 4.34204 1.97369 4.77542 1.23243 5.53435C0.491175 6.29328 0.0817603 7.31559 0.0942564 8.37638L0.282724 24.3753C0.29522 25.4361 0.728603 26.4484 1.48753 27.1897C2.24646 27.931 3.26877 28.3404 4.32956 28.3279L8.32929 28.2808Z" fill="black"/>
</svg>
